<?xml version="1.0" encoding="UTF-8"?>
<svg version="1.1" xmlns="http://www.w3.org/2000/svg" width="1080" height="1080">
<path d="M0 0 C2.26416827 1.05553258 4.54033861 2.07769028 6.82373047 3.09082031 C20.20478006 9.10451563 32.85088341 16.5233462 45.39013672 24.11425781 C45.48810547 23.07527344 45.58607422 22.03628906 45.68701172 20.96582031 C47.28426344 5.5003377 51.73795411 -6.78129568 63.96435547 -17.09667969 C74.90137819 -25.1629541 86.06404514 -26.78920602 99.39013672 -25.88574219 C111.0968536 -23.84979143 122.17378847 -17.03407126 129.18310547 -7.42871094 C134.50901285 1.13219204 137.49130059 9.56277395 137.53730774 19.72157288 C137.5480407 21.35914551 137.5480407 21.35914551 137.55899048 23.02980042 C137.56302383 24.80422768 137.56302383 24.80422768 137.56713867 26.61450195 C137.57699547 28.5010701 137.57699547 28.5010701 137.58705139 30.42575073 C137.60799751 34.58362575 137.61844712 38.74150072 137.62841797 42.89941406 C137.63246951 44.33733069 137.63658654 45.77524713 137.64076805 47.21316338 C137.65980152 53.97332945 137.67403459 60.73348475 137.68238002 67.49367243 C137.69213608 75.26573075 137.71842039 83.03750304 137.75888091 90.8094607 C137.78916943 96.8369135 137.80386101 102.86428491 137.80716103 108.89181226 C137.80949762 112.48216864 137.81827397 116.07221885 137.84362221 119.66249275 C137.87151567 123.6779249 137.86703321 127.69272869 137.86010742 131.70825195 C137.87291748 132.87703384 137.88572754 134.04581573 137.89892578 135.25001526 C137.81314462 148.9804744 133.56997086 161.70222479 124.14013672 171.86425781 C113.23740396 182.02416702 101.3566593 184.57148553 86.85327148 184.51831055 C85.51990186 184.5240257 84.18653712 184.53099435 82.85317993 184.53910828 C79.26010128 184.55692819 75.66726833 184.55589265 72.07415891 184.55016589 C69.06245857 184.54705788 66.05080434 184.55318426 63.0391106 184.55920464 C55.92845922 184.57321145 48.81792808 184.57172063 41.70727539 184.56030273 C34.39764405 184.54882394 27.08837973 184.56290174 19.77879673 184.58969921 C13.47781229 184.61192506 7.17694248 184.61847819 0.87592167 184.6126228 C-2.87635636 184.60926857 -6.62839919 184.61156522 -10.38064384 184.62887383 C-13.91115425 184.64445157 -17.44112492 184.64026935 -20.97161484 184.62156868 C-22.86712764 184.61618404 -24.76266533 184.63031395 -26.65812683 184.64526367 C-39.04383478 184.53966126 -50.58086935 180.5390049 -59.83642578 172.07910156 C-70.25009562 161.02189033 -73.32843404 148.73308937 -72.98486328 133.92675781 C-72.31538007 121.76129155 -66.08940986 112.10878719 -57.42236328 103.92675781 C-46.16356352 95.05768142 -34.48402089 93.553146 -20.60986328 92.11425781 C-48.85364872 77.96714743 -77.37234447 67.17412708 -108.48486328 61.30175781 C-109.51651611 61.10678711 -110.54816895 60.91181641 -111.61108398 60.7109375 C-128.65130785 57.68286983 -145.5756641 56.70521004 -162.85986328 56.73925781 C-163.85921906 56.7394693 -164.85857483 56.73968079 -165.88821411 56.73989868 C-183.43243692 56.77672586 -200.32699618 57.96911976 -217.60986328 61.11425781 C-218.65029785 61.30149414 -219.69073242 61.48873047 -220.76269531 61.68164062 C-268.18651471 70.50644906 -312.7527996 91.36560167 -350.60986328 121.11425781 C-351.59341797 121.88382813 -352.57697266 122.65339844 -353.59033203 123.44628906 C-369.67414791 136.32726715 -384.88748732 150.90419603 -397.60986328 167.11425781 C-398.54995059 168.25574437 -399.49282521 169.39493923 -400.43798828 170.53222656 C-433.50705743 210.56968881 -453.95441734 260.20636173 -462.60986328 311.11425781 C-462.77647461 312.08266602 -462.94308594 313.05107422 -463.11474609 314.04882812 C-475.40800663 389.2591488 -455.92918405 470.27564834 -412.06591797 532.29736328 C-408.68200273 536.98286598 -405.18071808 541.57011717 -401.60986328 546.11425781 C-400.84029297 547.0978125 -400.07072266 548.08136719 -399.27783203 549.09472656 C-386.39685395 565.17854244 -371.81992506 580.39188185 -355.60986328 593.11425781 C-354.46837672 594.05434512 -353.32918187 594.99721974 -352.19189453 595.94238281 C-310.54869707 630.33771407 -257.90713153 651.84057162 -204.60986328 659.11425781 C-203.32055908 659.29085937 -202.03125488 659.46746094 -200.70288086 659.64941406 C-188.60927106 661.20117588 -176.60515649 661.51315085 -164.42236328 661.48925781 C-163.42050995 661.48904633 -162.41865662 661.48883484 -161.38644409 661.48861694 C-143.8229974 661.45182262 -126.91163595 660.2628363 -109.60986328 657.11425781 C-108.56942871 656.92702148 -107.52899414 656.73978516 -106.45703125 656.546875 C-38.47456295 643.89643336 28.96678729 605.43313315 71.39013672 550.11425781 C72.4037016 548.82850364 73.41808768 547.54339657 74.43310547 546.25878906 C114.25515527 495.47740883 136.88869661 433.29895437 138.82763672 368.80175781 C139.37802541 351.43949634 141.72761311 338.42910086 153.93701172 325.41113281 C164.34844991 315.66284355 176.23633972 313.33375419 190.03466797 313.76269531 C198.92241555 314.29553849 206.22235163 318.05561409 213.39013672 323.11425781 C214.23576172 323.67113281 215.08138672 324.22800781 215.95263672 324.80175781 C223.7434504 332.19304259 229.92605095 343.02721168 230.55126953 353.92211914 C230.59831717 357.59046767 230.63689325 361.25812471 230.64013672 364.92675781 C230.64114883 365.95225739 230.64114883 365.95225739 230.6421814 366.99847412 C230.55830113 421.1349555 217.73321638 476.24442366 194.39013672 525.11425781 C194.03999512 525.8493457 193.68985352 526.58443359 193.32910156 527.34179688 C191.41354485 531.32681443 189.43007772 535.27145628 187.38769531 539.19287109 C186.35072297 541.19017221 185.33312359 543.19667065 184.31591797 545.20410156 C163.2078047 586.4329822 131.97173107 626.29540755 96.39013672 656.11425781 C95.06949219 657.26861328 95.06949219 657.26861328 93.72216797 658.44628906 C72.43476193 676.96508175 48.97754776 692.36883728 24.39013672 706.11425781 C23.72046875 706.49501465 23.05080078 706.87577148 22.36083984 707.26806641 C-20.44284166 731.52419861 -69.14011496 744.67998513 -117.60986328 751.11425781 C-118.56828125 751.24703125 -119.52669922 751.37980469 -120.51416016 751.51660156 C-190.43225777 760.82506931 -266.17266295 747.41556017 -329.60986328 717.11425781 C-330.34495117 716.76411621 -331.08003906 716.41397461 -331.83740234 716.05322266 C-335.8224199 714.13766594 -339.76706175 712.15419882 -343.68847656 710.11181641 C-345.68577768 709.07484406 -347.69227612 708.05724468 -349.69970703 707.04003906 C-390.92858767 685.93192579 -430.79101302 654.69585217 -460.60986328 619.11425781 C-461.37943359 618.23382812 -462.14900391 617.35339844 -462.94189453 616.44628906 C-481.46068722 595.15888302 -496.86444275 571.70166886 -510.60986328 547.11425781 C-511.18099854 546.10975586 -511.18099854 546.10975586 -511.76367188 545.08496094 C-536.01980408 502.28127943 -549.1755906 453.58400614 -555.60986328 405.11425781 C-555.74263672 404.15583984 -555.87541016 403.19742187 -556.01220703 402.20996094 C-565.32067478 332.29186332 -551.91116563 256.55145815 -521.60986328 193.11425781 C-521.25972168 192.37916992 -520.90958008 191.64408203 -520.54882812 190.88671875 C-518.63327141 186.9017012 -516.64980429 182.95705934 -514.60742188 179.03564453 C-513.57044953 177.03834341 -512.55285015 175.03184498 -511.53564453 173.02441406 C-490.42753126 131.79553342 -459.19145764 91.93310807 -423.60986328 62.11425781 C-422.72943359 61.3446875 -421.84900391 60.57511719 -420.94189453 59.78222656 C-399.65448849 41.26343387 -376.19727433 25.85967834 -351.60986328 12.11425781 C-350.94019531 11.73350098 -350.27052734 11.35274414 -349.58056641 10.96044922 C-306.7768849 -13.29568298 -258.07961161 -26.45146951 -209.60986328 -32.88574219 C-208.65144531 -33.01851562 -207.69302734 -33.15128906 -206.70556641 -33.28808594 C-137.59282544 -42.48933343 -62.9312514 -29.429075 0 0 Z " fill="#1EA8FF" transform="translate(703.60986328125,180.8857421875)"/>
<path d="M0 0 C1.81380815 1.69511936 3.6304221 3.2682466 5.578125 4.80078125 C34.16255875 29.48733767 51.51884995 71.02276936 54.328125 108.17578125 C54.99700062 124.68637963 54.80244113 140.98396348 51.328125 157.17578125 C51.16183594 157.96065918 50.99554687 158.74553711 50.82421875 159.55419922 C41.51490071 201.90297658 14.9513297 239.00785123 -21.45947266 262.3203125 C-59.50839864 286.3211369 -104.96729196 293.83107846 -148.8984375 284.07421875 C-191.02096665 273.91624104 -228.73784763 247.07620181 -251.48828125 210.14404297 C-274.46384678 171.93673907 -281.9252723 126.44970595 -271.453125 82.953125 C-263.57833358 52.41746986 -248.25072562 26.1901606 -225.671875 4.17578125 C-225.12144531 3.56863281 -224.57101562 2.96148437 -224.00390625 2.3359375 C-197.61382562 -25.89175029 -156.38831247 -41.06800887 -118.34912109 -42.73291016 C-74.79290362 -43.9215977 -32.02823384 -30.10841281 0 0 Z M-157.671875 65.17578125 C-158.45046875 65.78035156 -159.2290625 66.38492188 -160.03125 67.0078125 C-173.30556864 77.87902173 -182.5487392 95.24333462 -184.671875 112.17578125 C-186.39183328 134.72168422 -181.67859997 154.47217295 -166.78125 171.91015625 C-152.97443807 186.73969499 -135.35222166 196.1874447 -114.9140625 197.3984375 C-94.37760767 198.04137439 -76.02631496 191.31714378 -60.484375 177.86328125 C-45.74704873 164.01206004 -36.86855014 146.43611238 -36.20092773 126.09399414 C-35.96756287 103.15560117 -43.57539088 84.70913988 -59.5625 68.2265625 C-73.83856688 54.88023948 -93.34881358 47.39191467 -112.8984375 47.9296875 C-129.73245467 49.42341015 -144.51211457 54.31277146 -157.671875 65.17578125 Z " fill="#1EA8FF" transform="translate(650.671875,406.82421875)"/>
</svg>
