<?xml version="1.0" encoding="UTF-8"?>
<svg version="1.1" xmlns="http://www.w3.org/2000/svg" width="1080" height="1080">
<path d="M0 0 C1.10015442 -0.00960754 2.20030884 -0.01921509 3.33380127 -0.02911377 C5.11328156 -0.03548859 5.11328156 -0.03548859 6.92871094 -0.04199219 C8.79351105 -0.0505423 8.79351105 -0.0505423 10.69598389 -0.05926514 C13.33886351 -0.06871623 15.98162973 -0.07560965 18.62451172 -0.07910156 C22.57894635 -0.08553832 26.53299268 -0.11962556 30.48730469 -0.15136719 C74.94467222 -0.3379956 74.94467222 -0.3379956 90.41308594 8.16113281 C91.34765625 8.59167969 92.28222656 9.02222656 93.24511719 9.46582031 C103.22529148 14.29890061 110.16747113 21.76826726 114.35058594 32.05175781 C119.89777185 48.28543422 121.87288349 62.01446918 114.41308594 78.16113281 C112.61663021 81.34513234 110.63346858 84.26091392 108.41308594 87.16113281 C107.51589844 88.46050781 107.51589844 88.46050781 106.60058594 89.78613281 C102.47531854 94.26499456 97.46574125 97.79269593 92.41308594 101.16113281 C93.00476563 101.54785156 93.59644531 101.93457031 94.20605469 102.33300781 C94.99625 102.85378906 95.78644531 103.37457031 96.60058594 103.91113281 C97.37789062 104.42160156 98.15519531 104.93207031 98.95605469 105.45800781 C109.22657261 112.57715855 115.97990496 122.34675853 118.99511719 134.50878906 C121.44970707 150.0851118 117.91537606 164.01972905 109.41308594 177.16113281 C98.40020532 191.79048815 84.21878739 198.47080814 66.41308594 201.16113281 C51.84462603 202.7198418 37.03837923 202.34792324 22.41308594 202.16113281 C21.05892096 202.14825894 19.7047542 202.1355707 18.35058594 202.12304688 C14.81531923 202.08726234 11.28109355 202.02705897 7.74645996 201.95159912 C6.36774565 201.92481973 4.98889133 201.90441853 3.60998535 201.89068604 C1.67426295 201.86940853 -0.26109447 201.82046596 -2.19628906 201.77050781 C-3.3097168 201.74956055 -4.42314453 201.72861328 -5.5703125 201.70703125 C-9.37259452 201.01895237 -10.92454728 199.95303857 -13.58691406 197.16113281 C-16.16748027 192.09499125 -16.9628243 188.39130013 -16.96786499 182.62234497 C-16.97254496 181.89584177 -16.97722493 181.16933857 -16.98204672 180.42082012 C-16.99394549 178.00350167 -16.98455984 175.58675554 -16.97509766 173.16943359 C-16.97916571 171.42932811 -16.98450891 169.68922522 -16.99102783 167.9491272 C-17.0046814 163.23414709 -16.99941033 158.51936436 -16.98989058 153.80438089 C-16.98228142 148.8624917 -16.9893433 143.92061912 -16.99404907 138.97872925 C-16.99950398 130.67833431 -16.992323 122.37801949 -16.97802734 114.07763672 C-16.96171211 104.49424818 -16.96698223 94.91105123 -16.98350656 85.32766736 C-16.9971418 77.08879592 -16.99903081 68.84998202 -16.99119055 60.61110294 C-16.98652385 55.69524363 -16.98586133 50.77947422 -16.99580002 45.86362076 C-17.00449668 41.2391582 -16.99839859 36.61494137 -16.98111725 31.99050522 C-16.97716633 30.2978735 -16.97826243 28.60522095 -16.98490524 26.91259766 C-17.0432419 10.53172766 -17.0432419 10.53172766 -13.58691406 3.16113281 C-9.16385267 0.21242522 -5.22665522 0.03711196 0 0 Z M24.41308594 41.16113281 C24.32440295 44.11818602 24.29788298 47.05178337 24.31542969 50.00878906 C24.31684464 50.89521591 24.31825958 51.78164276 24.31971741 52.69493103 C24.32533378 55.53786536 24.33788902 58.38072212 24.35058594 61.22363281 C24.35559883 63.14615772 24.3601621 65.06868386 24.36425781 66.99121094 C24.37530853 71.7145483 24.39258411 76.43782739 24.41308594 81.16113281 C31.97272477 82.04886562 39.42786778 82.34405936 47.03808594 82.34863281 C48.11832031 82.36087891 49.19855469 82.373125 50.31152344 82.38574219 C57.80970146 82.39945837 64.20707863 82.15732604 70.72558594 78.09863281 C74.71838418 73.73441147 76.23637489 69.57219156 76.54199219 63.67285156 C76.18069908 56.63311006 73.70539554 50.78975361 68.95996094 45.55957031 C63.50663577 40.65157766 57.72344861 39.85669216 50.64355469 39.93066406 C49.92194656 39.93112228 49.20033844 39.93158051 48.4568634 39.93205261 C46.94331196 39.9350564 45.42976309 39.94288605 43.91625977 39.95532227 C41.59022198 39.97371476 39.26457988 39.97583076 36.93847656 39.97558594 C35.4651658 39.98049674 33.99185775 39.98632314 32.51855469 39.99316406 C31.47177803 39.9948333 31.47177803 39.9948333 30.40385437 39.99653625 C27.12666323 39.75017737 27.12666323 39.75017737 24.41308594 41.16113281 Z M24.41308594 121.16113281 C24.33904384 126.25143225 24.28453586 131.34141974 24.24829102 136.43212891 C24.23318503 138.1646063 24.212699 139.89704535 24.18676758 141.62939453 C24.15046273 144.1166326 24.13337828 146.60336607 24.12011719 149.09082031 C24.10463333 149.8679538 24.08914948 150.64508728 24.07319641 151.44577026 C24.03739029 153.85849119 24.03739029 153.85849119 24.41308594 157.16113281 C32.68280823 162.67428101 46.61636682 160.88342728 56.11230469 159.70019531 C63.75344999 158.03694986 69.3239038 154.84822116 74.35058594 148.84863281 C76.88693833 142.43315324 76.97553679 136.62424067 74.48730469 130.17285156 C72.14324202 125.78306148 68.94930767 123.70260451 64.24487305 122.04443359 C59.98697052 121.062905 56.19861867 120.90613585 51.85449219 120.96582031 C51.0653392 120.96865021 50.27618622 120.9714801 49.46311951 120.97439575 C46.96711422 120.98550224 44.47148095 121.01058827 41.97558594 121.03613281 C40.2731172 121.04617496 38.57064278 121.05529865 36.86816406 121.06347656 C32.71633018 121.08541021 28.56477092 121.11987304 24.41308594 121.16113281 Z " fill="#000000" transform="translate(560.5869140625,524.8388671875)"/>
<path d="M0 0 C1.75496292 -0.01441132 1.75496292 -0.01441132 3.54537964 -0.02911377 C5.4451506 -0.03548859 5.4451506 -0.03548859 7.38330078 -0.04199219 C8.70161896 -0.04769226 10.01993713 -0.05339233 11.37820435 -0.05926514 C14.18085105 -0.06977443 16.98346918 -0.07561343 19.78613281 -0.07910156 C22.6156946 -0.08343793 25.44494313 -0.09713621 28.27441406 -0.12011719 C74.13953437 -0.48450084 74.13953437 -0.48450084 88.57861328 7.41113281 C89.35624023 7.81098389 90.13386719 8.21083496 90.93505859 8.62280273 C102.67447252 14.83902858 109.57317407 22.85242985 113.75048828 35.66894531 C118.16917152 50.46995767 119.13879979 62.90771171 112.20361328 77.16113281 C107.35143545 85.99902815 99.54152409 93.6025256 91.20361328 99.16113281 C91.77208984 99.51304687 92.34056641 99.86496094 92.92626953 100.22753906 C104.91599654 107.8937585 113.25680844 117.49100503 116.79345703 131.49707031 C119.19173776 147.07447468 115.72512592 160.9590849 107.20361328 174.16113281 C105.32124704 176.71704716 103.43309477 178.88098129 101.20361328 181.16113281 C100.54361328 181.16113281 99.88361328 181.16113281 99.20361328 181.16113281 C98.95224609 181.75925781 98.70087891 182.35738281 98.44189453 182.97363281 C94.5150769 189.91059772 85.57237917 192.35310504 78.37939453 194.35253906 C77.33138672 194.619375 76.28337891 194.88621094 75.20361328 195.16113281 C74.39279297 195.37640625 73.58197266 195.59167969 72.74658203 195.81347656 C56.49668609 199.60604171 38.74562536 198.36763336 22.20361328 198.16113281 C20.863445 198.14833313 19.5232757 198.1356408 18.18310547 198.12304688 C14.75343057 198.08753403 11.32485247 198.02753943 7.89584351 197.95159912 C5.92743257 197.91186593 3.95868543 197.89009004 1.98999023 197.86865234 C0.78560303 197.83626465 -0.41878418 197.80387695 -1.65966797 197.77050781 C-2.72483643 197.74956055 -3.79000488 197.72861328 -4.88745117 197.70703125 C-8.55337788 197.01907388 -10.19079 195.80504295 -12.79638672 193.16113281 C-15.42942427 188.41014472 -15.10307225 183.50878475 -15.11523438 178.22583008 C-15.12528 177.22609665 -15.13532562 176.22636322 -15.14567566 175.19633484 C-15.17665669 171.87340839 -15.19363168 168.55056506 -15.21044922 165.22753906 C-15.22921129 162.8786505 -15.24878821 160.52976832 -15.26913452 158.18089294 C-15.32061887 151.95639055 -15.36004899 145.73186486 -15.39727783 139.50726318 C-15.42872464 134.57202491 -15.46852178 129.63687279 -15.50883865 124.70170021 C-15.63556314 109.18830634 -15.72665111 93.67488112 -15.79638672 78.16113281 C-15.8016185 77.05347313 -15.80685028 75.94581345 -15.8122406 74.80458832 C-15.84149773 68.48442037 -15.86387255 62.16429351 -15.87595749 55.84406853 C-15.88009171 53.95733134 -15.88582048 52.07059672 -15.89342117 50.18387032 C-15.93104845 40.2181041 -15.82016713 30.26050784 -15.47851562 20.30004883 C-15.45637686 19.38949454 -15.43423809 18.47894026 -15.41142845 17.54079342 C-15.15614262 11.26567713 -14.4330299 5.797776 -9.79638672 1.16113281 C-6.54721037 0.02765342 -3.41954141 0.02275287 0 0 Z M25.20361328 40.16113281 C25.11493029 43.11818602 25.08841032 46.05178337 25.10595703 49.00878906 C25.10737198 49.89521591 25.10878693 50.78164276 25.11024475 51.69493103 C25.11586113 54.53786536 25.12841637 57.38072212 25.14111328 60.22363281 C25.14612617 62.14615772 25.15068944 64.06868386 25.15478516 65.99121094 C25.16583588 70.7145483 25.18311145 75.43782739 25.20361328 80.16113281 C30.16573881 80.23584631 35.12752969 80.28999841 40.09008789 80.32592773 C41.7747163 80.34092156 43.45930631 80.36132354 45.14379883 80.38745117 C58.00844002 80.7585392 58.00844002 80.7585392 70.20361328 77.16113281 C74.17478472 72.88448665 75.72767278 67.9009753 76.20361328 62.16113281 C75.80658425 54.49847249 72.02841151 47.71394539 66.44580078 42.52832031 C61.23612111 39.35168637 55.7541264 38.91109585 49.77392578 38.93066406 C48.76022415 38.93135139 48.76022415 38.93135139 47.7260437 38.93205261 C46.31262431 38.93504979 44.89920746 38.94285899 43.48583984 38.95532227 C41.31352191 38.97376091 39.14162689 38.97583036 36.96923828 38.97558594 C30.59956153 38.35255831 30.59956153 38.35255831 25.20361328 40.16113281 Z M25.20361328 119.16113281 C25.12956591 124.10901595 25.07506083 129.05657805 25.03881836 134.00488281 C25.02371325 135.68885921 25.00322782 137.37279616 24.97729492 139.05664062 C24.94098607 141.47438274 24.92390481 143.89160574 24.91064453 146.30957031 C24.89516068 147.06483002 24.87967682 147.82008972 24.86372375 148.59823608 C24.82799018 150.94521362 24.82799018 150.94521362 25.20361328 154.16113281 C33.82930857 159.91159634 49.34735441 157.43342827 59.23486328 155.59863281 C65.7643861 153.86791592 69.87535826 151.21194974 74.01611328 145.78613281 C77.34814531 138.42058833 75.81518421 132.59295287 73.20361328 125.41113281 C69.55938695 121.31137819 64.62843653 119.5152673 59.1907959 118.95300293 C53.65410346 118.66554766 48.11868342 118.79596367 42.57861328 118.91113281 C40.88983244 118.93123349 39.20102843 118.94947793 37.51220703 118.96582031 C33.40876217 119.00952266 29.30644817 119.07835017 25.20361328 119.16113281 Z " fill="#000000" transform="translate(230.79638671875,292.8388671875)"/>
<path d="M0 0 C1.24037018 -0.00287018 2.48074036 -0.00574036 3.75869751 -0.00869751 C7.06017885 -0.0112567 10.36123395 0.0007469 13.66265869 0.01757812 C16.92881052 0.02714022 20.19482582 0.00430772 23.4609375 -0.01171875 C67.99608317 -0.04979678 67.99608317 -0.04979678 83.2890625 8.3984375 C84.24683594 8.86378906 85.20460938 9.32914063 86.19140625 9.80859375 C92.23160572 12.84896261 96.99493362 16.15508013 101.2890625 21.3984375 C101.73765625 21.9346875 102.18625 22.4709375 102.6484375 23.0234375 C112.8698742 37.15678207 113.36521194 57.19329691 110.9765625 73.6484375 C108.80457926 85.49561879 104.31267903 95.2551738 95.2890625 103.3984375 C94.82371094 103.84445312 94.35835938 104.29046875 93.87890625 104.75 C86.704455 111.34273899 76.40253098 119.08915626 66.4140625 119.5234375 C65.7128125 119.4821875 65.0115625 119.4409375 64.2890625 119.3984375 C69.05359585 127.31695772 74.38892662 134.65521033 79.96875 142.0078125 C83.51913598 146.68641808 86.99991965 151.41490512 90.4765625 156.1484375 C100.17775926 169.34994907 100.17775926 169.34994907 110.1640625 182.3359375 C116.04891494 189.92753368 116.04891494 189.92753368 116.7890625 194.4609375 C116.2890625 197.3984375 116.2890625 197.3984375 114.19018555 199.55102539 C110.64060615 201.81136935 108.55568423 201.90094548 104.37109375 201.89453125 C103.71380783 201.89598648 103.05652191 201.89744171 102.37931824 201.89894104 C100.99168457 201.89728698 99.60403163 201.88578066 98.21655273 201.86499023 C96.12466607 201.83625486 94.03535515 201.84434536 91.94335938 201.85742188 C82.56725994 201.84387845 73.56676955 201.63633814 66.2890625 195.1484375 C61.95018882 190.38520292 58.54136089 184.9776012 55.05078125 179.5859375 C52.14627879 175.12752095 49.04708803 170.82316814 45.9140625 166.5234375 C41.5843422 160.57047057 37.28185427 154.60126115 33.0390625 148.5859375 C32.59256348 147.95381348 32.14606445 147.32168945 31.68603516 146.67041016 C27.18026246 140.27433137 22.73751655 133.83443328 18.2890625 127.3984375 C18.29350372 128.16994141 18.29794495 128.94144531 18.30252075 129.73632812 C18.34271653 137.03303616 18.37310714 144.32968995 18.39268684 151.6264801 C18.40309158 155.3771744 18.41718975 159.12777664 18.43994141 162.87841797 C18.46178859 166.5029388 18.47365598 170.12737149 18.47881699 173.75195312 C18.48249155 175.12973415 18.48966667 176.50751075 18.50052261 177.88525391 C18.61136486 192.54515419 18.61136486 192.54515419 16.2890625 198.3984375 C11.22350838 202.80999976 4.73595178 202.07667041 -1.6484375 202.2734375 C-2.81568359 202.33273437 -3.98292969 202.39203125 -5.18554688 202.453125 C-16.01350447 202.84799069 -16.01350447 202.84799069 -20.7109375 199.3984375 C-23.10292796 195.81045181 -22.9939614 193.25458874 -22.97163391 189.11288452 C-22.97545946 188.3652977 -22.97928501 187.61771089 -22.98322648 186.84746993 C-22.99356962 184.33492856 -22.9895618 181.82261517 -22.9855957 179.31005859 C-22.98994164 177.51143176 -22.99512439 175.71280678 -23.00108337 173.91418457 C-23.01450212 169.02133121 -23.01504851 164.12855496 -23.01252007 159.23568678 C-23.01145161 155.1504986 -23.01633089 151.06532611 -23.0211255 146.98014128 C-23.03223211 137.33782319 -23.03265259 127.69554405 -23.02661133 118.05322266 C-23.02057905 108.11320028 -23.03286094 98.17331972 -23.0541814 88.23332155 C-23.07181583 79.69730076 -23.07779557 71.16132502 -23.07454365 62.6252867 C-23.0727325 57.52827264 -23.07534968 52.43135958 -23.08925819 47.33436203 C-23.10186067 42.53596426 -23.0998695 37.73778659 -23.08684731 32.93939209 C-23.08448668 31.18225657 -23.08719772 29.42510546 -23.09547043 27.66798782 C-23.16946368 10.72384358 -23.16946368 10.72384358 -19.7109375 3.3984375 C-13.84057186 -0.73608332 -6.95660849 -0.03592299 0 0 Z M18.2890625 40.3984375 C17.12244298 44.56248514 17.16330187 48.5882443 17.19140625 52.8828125 C17.1928212 53.69840637 17.19423615 54.51400024 17.19569397 55.35430908 C17.20127947 57.95238962 17.21382929 60.55038313 17.2265625 63.1484375 C17.23157938 64.91275917 17.23614196 66.67708219 17.24023438 68.44140625 C17.25124415 72.76045006 17.26849881 77.07942904 17.2890625 81.3984375 C24.98350832 82.3332056 32.60435561 82.61263296 40.3515625 82.6484375 C42.03088867 82.679375 42.03088867 82.679375 43.74414062 82.7109375 C51.78911718 82.74868519 58.69822495 82.14886626 65.2265625 77.1484375 C69.06999219 72.02386458 69.83096238 66.68447615 69.2890625 60.3984375 C67.91521769 54.36640013 65.63448842 48.89033845 61.2890625 44.3984375 C55.41669811 40.80311236 50.44610489 40.2509753 43.6796875 40.30078125 C42.95287781 40.3021962 42.22606812 40.30361115 41.47723389 40.30506897 C39.16446756 40.31064958 36.85179938 40.32319846 34.5390625 40.3359375 C32.96744932 40.34095501 31.39583461 40.34551748 29.82421875 40.34960938 C25.97912907 40.36061265 22.1341124 40.37786389 18.2890625 40.3984375 Z " fill="#000000" transform="translate(406.7109375,524.6015625)"/>
<path d="M0 0 C1.75496292 -0.01441132 1.75496292 -0.01441132 3.54537964 -0.02911377 C5.4451506 -0.03548859 5.4451506 -0.03548859 7.38330078 -0.04199219 C8.70161896 -0.04769226 10.01993713 -0.05339233 11.37820435 -0.05926514 C14.18085105 -0.06977443 16.98346918 -0.07561343 19.78613281 -0.07910156 C22.6156946 -0.08343793 25.44494313 -0.09713621 28.27441406 -0.12011719 C74.13511609 -0.48446573 74.13511609 -0.48446573 88.57861328 7.41113281 C89.35551514 7.80953369 90.13241699 8.20793457 90.93286133 8.6184082 C103.53003783 15.27510571 109.78352561 23.91290233 114.01611328 37.41113281 C119.41441644 54.96244208 117.93831811 73.16226522 109.96142578 89.74316406 C102.89878119 102.73124775 88.69081221 112.54546109 74.76611328 117.22363281 C73.59048828 117.53300781 72.41486328 117.84238281 71.20361328 118.16113281 C76.02810125 126.34586726 81.64036779 133.84236688 87.37524414 141.40136719 C91.48178954 146.82634307 95.4564044 152.3170739 99.32861328 157.91113281 C103.89805121 164.49727608 108.78534277 170.75056424 113.92871094 176.8984375 C120.89238232 185.25484316 120.89238232 185.25484316 121.70361328 190.22363281 C121.20361328 193.16113281 121.20361328 193.16113281 119.10693359 195.3137207 C115.54743654 197.57866471 113.44622149 197.66362419 109.25048828 197.65722656 C108.59083069 197.65868179 107.9311731 197.66013702 107.25152588 197.66163635 C105.85969618 197.65998249 104.46784723 197.64847847 103.07617188 197.62768555 C100.97330626 197.59890236 98.87299485 197.60705064 96.77001953 197.62011719 C86.74239225 197.60895421 78.40264374 197.01987768 70.83886719 189.95019531 C67.7943655 186.6193341 65.35066284 182.93388313 62.89111328 179.16113281 C61.75298814 177.45590569 60.61365557 175.75148385 59.47314453 174.04785156 C58.91836426 173.21431152 58.36358398 172.38077148 57.79199219 171.52197266 C55.61861007 168.29163065 53.36060843 165.12774858 51.07861328 161.97363281 C46.58975244 155.74183432 42.23246054 149.42475928 37.89501953 143.08691406 C36.12064335 140.49428562 34.33726475 137.90832416 32.54345703 135.32910156 C32.12717041 134.7304126 31.71088379 134.13172363 31.28198242 133.51489258 C30.14992424 131.88857812 29.01665315 130.26310814 27.88330078 128.63769531 C26.20361328 126.16113281 26.20361328 126.16113281 25.20361328 124.16113281 C25.20651367 125.46937012 25.20941406 126.77760742 25.21240234 128.12548828 C25.23267736 141.16943663 25.20177173 154.21186606 24.99609375 167.25439453 C24.96732318 169.3076874 24.94639872 171.3611026 24.93261719 173.41455078 C24.91131274 176.43741469 24.86487923 179.45897131 24.81298828 182.48144531 C24.81114532 183.85624557 24.81114532 183.85624557 24.80926514 185.25881958 C24.66325224 191.55027522 24.66325224 191.55027522 22.29052734 194.70361328 C17.16805304 198.28119536 11.47439137 197.64337715 5.39111328 197.91113281 C4.20195312 197.97945312 3.01279297 198.04777344 1.78759766 198.11816406 C0.6396875 198.1684375 -0.50822266 198.21871094 -1.69091797 198.27050781 C-2.74126221 198.32174805 -3.79160645 198.37298828 -4.8737793 198.42578125 C-9.22059583 198.03216759 -11.76261489 196.19490465 -14.79638672 193.16113281 C-15.05809975 191.24473858 -15.05809975 191.24473858 -15.07485962 188.85758972 C-15.0860231 187.95224487 -15.09718658 187.04690002 -15.10868835 186.11412048 C-15.11084854 185.11667313 -15.11300873 184.11922577 -15.11523438 183.09155273 C-15.12528 182.04188324 -15.13532562 180.99221375 -15.14567566 179.91073608 C-15.17678396 176.40436345 -15.19366275 172.89806983 -15.21044922 169.39160156 C-15.22919694 166.92392862 -15.24877292 164.45626184 -15.26913452 161.98860168 C-15.3154578 156.10659224 -15.35269218 150.22457744 -15.38580739 144.34248 C-15.41938687 138.4719402 -15.46332116 132.60150593 -15.50884914 126.73104858 C-15.7000169 102.076498 -15.829412 77.42192661 -15.83935547 52.76660156 C-15.84008183 51.85124319 -15.84080818 50.93588482 -15.84155655 49.99278831 C-15.86329181 11.01377424 -15.86329181 11.01377424 -11.79638672 3.16113281 C-8.35967825 -0.27557566 -4.69375921 0.03123123 0 0 Z M24.20361328 40.16113281 C24.11493029 43.11818602 24.08841032 46.05178337 24.10595703 49.00878906 C24.10737198 49.89521591 24.10878693 50.78164276 24.11024475 51.69493103 C24.11586113 54.53786536 24.12841637 57.38072212 24.14111328 60.22363281 C24.14612617 62.14615772 24.15068944 64.06868386 24.15478516 65.99121094 C24.16583588 70.7145483 24.18311145 75.43782739 24.20361328 80.16113281 C29.34479383 80.21079867 34.4858328 80.24697776 39.62719727 80.27099609 C41.37396683 80.2810155 43.12071978 80.29463476 44.86743164 80.31201172 C47.38708613 80.33643951 49.90651767 80.3476567 52.42626953 80.35644531 C53.19947037 80.36676788 53.9726712 80.37709045 54.76930237 80.38772583 C61.00848757 80.38899907 66.3217757 79.95933317 71.01611328 75.47363281 C75.01751929 69.41436085 75.7075533 64.10282417 74.86767578 57.01269531 C73.56672712 51.42626873 70.88197575 46.34307465 66.39111328 42.68457031 C60.87554535 39.37998436 56.1671447 39.03374734 49.84814453 39.02832031 C49.14590256 39.02736359 48.44366058 39.02640686 47.72013855 39.02542114 C46.24172882 39.02474261 44.76331606 39.02657406 43.28491211 39.03076172 C41.0136047 39.03613875 38.74249288 39.03079343 36.47119141 39.02441406 C35.03434201 39.02507443 33.59749274 39.02635473 32.16064453 39.02832031 C30.85071533 39.02944824 29.54078613 39.03057617 28.19116211 39.03173828 C25.32054787 38.81891573 25.32054787 38.81891573 24.20361328 40.16113281 Z " fill="#000000" transform="translate(392.79638671875,292.8388671875)"/>
<path d="M0 0 C2.26236812 0.01924042 4.52473806 0.03826767 6.78710938 0.05712891 C8.67901001 0.07794525 8.67901001 0.07794525 10.60913086 0.09918213 C15.14890768 0.14505069 19.68853744 0.15207205 24.22851562 0.15771484 C32.10242483 0.16888761 39.97578241 0.20804557 47.84946442 0.2688427 C52.42705831 0.3034454 57.00429978 0.32826599 61.58203125 0.33227539 C66.08505951 0.33654951 70.58734507 0.36486626 75.0901413 0.41015053 C76.78852775 0.42308113 78.48700293 0.42744901 80.18543243 0.42287254 C82.54144639 0.41798147 84.89523658 0.44395943 87.25097656 0.47729492 C87.94178314 0.46866928 88.63258972 0.46004364 89.34432983 0.45115662 C93.12884234 0.54101178 94.70380924 1.08749731 97.70257568 3.47529602 C100.35374457 6.8954184 100.3157464 8.72585294 100.140625 13.01171875 C100.09292969 14.3265625 100.04523438 15.64140625 99.99609375 16.99609375 C99.95790527 17.67607422 99.9197168 18.35605469 99.88037109 19.05664062 C99.76598917 21.13011715 99.69432016 23.2018046 99.62890625 25.27734375 C99.08383089 37.63238526 99.08383089 37.63238526 95.765625 41.13671875 C87.91116315 42.85717114 79.67139565 42.17364696 71.66796875 42.015625 C70.22352417 41.99127532 68.77907094 41.96743434 67.33460999 41.94407654 C63.56167622 41.88171717 59.78889879 41.81251846 56.01611328 41.74182129 C52.15469385 41.67069846 48.29316495 41.60614598 44.43164062 41.54101562 C36.87618088 41.41262547 29.32087435 41.27699885 21.765625 41.13671875 C21.92828354 41.89889206 22.09094208 42.66106537 22.25852966 43.44633484 C22.83977951 46.53014399 22.87815208 49.39350591 22.86328125 52.53125 C22.86005859 53.73330078 22.85683594 54.93535156 22.85351562 56.17382812 C22.84094727 58.04264648 22.84094727 58.04264648 22.828125 59.94921875 C22.82361328 61.21443359 22.81910156 62.47964844 22.81445312 63.78320312 C22.80268751 66.90108985 22.78624772 70.01888008 22.765625 73.13671875 C23.34317535 73.14702621 23.92072571 73.15733368 24.51577759 73.16795349 C30.65039973 73.27803858 36.7849323 73.39241265 42.91943359 73.5090332 C45.1941537 73.5517502 47.4688931 73.59345391 49.74365234 73.6340332 C57.4185231 73.77138728 65.09201652 73.94151419 72.765625 74.13671875 C73.84017944 74.16131165 74.91473389 74.18590454 76.02185059 74.21124268 C79.09080445 74.28643972 82.15840613 74.38209037 85.2265625 74.484375 C86.14885651 74.50471298 87.07115051 74.52505096 88.02139282 74.54600525 C88.86817596 74.5785994 89.71495911 74.61119354 90.58740234 74.64477539 C91.69455093 74.67868126 91.69455093 74.67868126 92.82406616 74.71327209 C95.29346156 75.25183791 96.21703457 76.17310983 97.765625 78.13671875 C98.12207031 80.21459961 98.12207031 80.21459961 98.09375 82.6015625 C98.08947998 83.47893066 98.08520996 84.35629883 98.08081055 85.26025391 C98.05929932 86.1888623 98.03778809 87.1174707 98.015625 88.07421875 C98.00249268 89.0182959 97.98936035 89.96237305 97.97583008 90.93505859 C97.6404663 110.00662388 97.6404663 110.00662388 95.53193665 112.73036194 C89.38636196 117.62353628 75.56689603 115.26391908 68.12890625 115.234375 C66.75457308 115.23250483 65.38023923 115.23108377 64.00590515 115.23008728 C60.42707405 115.22630917 56.84828496 115.21652038 53.26947021 115.2053833 C49.60217863 115.19506671 45.93488011 115.19056793 42.26757812 115.18554688 C35.10024148 115.1748928 27.93293917 115.15787457 20.765625 115.13671875 C20.92788574 115.74741211 21.09014648 116.35810547 21.25732422 116.98730469 C23.29333913 125.59685094 21.63672436 135.85049479 21.2578125 144.62109375 C21.21068115 145.73081543 21.1635498 146.84053711 21.11499023 147.98388672 C20.99943889 150.70153728 20.88296047 153.41914473 20.765625 156.13671875 C21.62704605 156.13227753 22.4884671 156.1278363 23.37599182 156.1232605 C31.51182681 156.083112 39.64762831 156.0526979 47.78353977 156.03309441 C51.96584375 156.02267711 56.14806556 156.0085556 60.33032227 155.98583984 C64.36980429 155.96403798 68.40920748 155.95213468 72.44874382 155.94696426 C73.98644183 155.94328166 75.52413574 155.93609053 77.0618 155.92525864 C79.22301532 155.91064586 81.38390889 155.90874485 83.54516602 155.90966797 C85.38716331 155.90300613 85.38716331 155.90300613 87.26637268 155.89620972 C91.0535942 156.15651132 94.20544358 156.820537 97.765625 158.13671875 C101.03902588 163.04682008 100.09328398 168.55471233 100.078125 174.32421875 C100.09423828 175.53142578 100.11035156 176.73863281 100.12695312 177.98242188 C100.1306381 184.72223949 99.81072293 190.06874989 96.765625 196.13671875 C94.41567045 197.31169603 93.00304701 197.27243202 90.38273621 197.2906189 C89.46165573 197.29921936 88.54057526 197.30781982 87.59158325 197.31668091 C86.57804779 197.32094086 85.56451233 197.32520081 84.52026367 197.32958984 C83.45511032 197.33776733 82.38995697 197.34594482 81.29252625 197.35437012 C77.7562212 197.37924906 74.21995632 197.39574571 70.68359375 197.41015625 C69.4780868 197.41547993 68.27257984 197.4208036 67.03054237 197.4262886 C60.65114604 197.45302979 54.27176935 197.47240248 47.89233398 197.48681641 C41.29443187 197.50347547 34.69702816 197.54826176 28.09931469 197.59918785 C23.03358874 197.63279869 17.96798204 197.64438709 12.90215492 197.65004349 C10.46962991 197.65677192 8.03711318 197.67203492 5.60469627 197.6959343 C2.20243749 197.72745788 -1.19846436 197.72764132 -4.60083008 197.72021484 C-6.11202423 197.74482285 -6.11202423 197.74482285 -7.65374756 197.76992798 C-11.94473493 197.7315278 -14.58495331 197.50185921 -18.36923218 195.37413025 C-21.29272038 190.29970153 -20.84255019 185.50649321 -20.71020508 179.75463867 C-20.69666992 177.8648378 -20.69666992 177.8648378 -20.68286133 175.93685913 C-20.65752485 172.47276755 -20.60109343 169.00978759 -20.5394156 165.54617858 C-20.47951749 161.87059855 -20.44894422 158.19477166 -20.41520691 154.51887512 C-20.34649429 147.50331795 -20.25250643 140.48833973 -20.14908761 133.47321731 C-20.02399024 124.91921409 -19.92793559 116.36494012 -19.83398438 107.81054688 C-19.80046027 104.76294763 -19.76679082 101.71535009 -19.73287964 98.66775513 C-19.72455797 97.91845454 -19.7162363 97.16915396 -19.70766246 96.3971473 C-19.64842199 91.14338944 -19.57985832 85.88979978 -19.50808716 80.63619995 C-19.32732093 67.13982917 -19.20169268 53.6526791 -19.32177734 40.15478516 C-19.33022391 39.01343392 -19.33867048 37.87208269 -19.34737301 36.69614506 C-19.38738009 31.46969682 -19.4466176 26.24501603 -19.54463196 21.01933289 C-19.56266904 19.22033429 -19.57998617 17.42132827 -19.59643555 15.62231445 C-19.61966322 14.82445589 -19.64289089 14.02659733 -19.66682243 13.20456123 C-19.68156461 9.46258104 -19.38492191 7.37151707 -17.34364319 4.18786621 C-12.25815093 -0.75749569 -6.68798397 -0.10852444 0 0 Z " fill="#000000" transform="translate(767.234375,292.86328125)"/>
<path d="M0 0 C5.94 0 11.88 0 18 0 C22.24918293 4.24918293 19 11.99074787 19 18 C251.32 18 483.64 18 723 18 C723 12.39 723 6.78 723 1 C723.33 0.67 723.66 0.34 724 0 C729.94 0 735.88 0 742 0 C742 12.21 742 24.42 742 37 C497.14 37 252.28 37 0 37 C0 24.79 0 12.58 0 0 Z " fill="#1EA8FF" transform="translate(169,482)"/>
<path d="M0 0 C244.86 0 489.72 0 742 0 C742 11.88 742 23.76 742 36 C735.73 36 729.46 36 723 36 C723 30.39 723 24.78 723 19 C490.68 19 258.36 19 19 19 C19 24.61 19 30.22 19 36 C12.73 36 6.46 36 0 36 C0 24.12 0 12.24 0 0 Z " fill="#1EA8FF" transform="translate(169,259)"/>
<path d="M0 0 C1.65989363 0.68335594 3.32385671 1.35753141 5 2 C5.556875 0.39125 5.556875 0.39125 6.125 -1.25 C7.86790148 -5.28403957 10.00807098 -7.04317205 14 -9 C17.92852437 -9.65475406 19.62594235 -9.19069606 23.1875 -7.375 C27.28648449 -3.91363532 28.81462159 -0.72646759 29.38818359 4.61523438 C29.39325928 6.58459961 29.39325928 6.58459961 29.3984375 8.59375 C29.40274277 9.65837463 29.40274277 9.65837463 29.40713501 10.74450684 C29.40916596 12.23706872 29.40370422 13.72965781 29.39111328 15.22216797 C29.37504403 17.49377522 29.39099325 19.76360367 29.41015625 22.03515625 C29.40817364 23.49219139 29.40432961 24.94922543 29.3984375 26.40625 C29.39505371 27.71916016 29.39166992 29.03207031 29.38818359 30.38476562 C28.80919032 35.77705016 27.41150666 38.77017242 23.31225586 42.34179688 C19.43794658 44.28137885 16.24228401 44.57940488 12.00390625 44.53125 C11.25213608 44.5350769 10.50036591 44.53890381 9.72581482 44.54284668 C8.14328667 44.54555622 6.56071301 44.53826222 4.97827148 44.52148438 C2.57237546 44.50008783 0.16947507 44.52129966 -2.23632812 44.546875 C-3.78125652 44.54423096 -5.32618306 44.53910441 -6.87109375 44.53125 C-7.5817247 44.53934692 -8.29235565 44.54744385 -9.02452087 44.55578613 C-14.50528732 44.4542852 -17.56958582 42.99034531 -22 40 C-24.64930485 36.65957214 -24.3625472 33.13303804 -24 29 C-22.32375739 25.31226627 -20.42746406 23.14216504 -17 21 C-16.01 20.67 -15.02 20.34 -14 20 C-33.90448372 11.70910217 -53.63720353 10.19921301 -74.08618164 18.20629883 C-92.95428798 26.12995455 -106.17990524 40.36220876 -114.3203125 59.02734375 C-121.40715629 77.74186086 -121.24337739 97.69165241 -113.26953125 116.08984375 C-104.55548354 135.13049522 -90.2904494 148.11244723 -71 156 C-67.03410992 157.27039741 -63.09066739 158.23107756 -59 159 C-57.2675 159.3403125 -57.2675 159.3403125 -55.5 159.6875 C-34.73738606 161.54130482 -15.12477036 156.57546036 1.25390625 143.44140625 C17.04499828 129.40238418 25.82356385 112.3003382 27.28051758 91.25341797 C27.72189927 85.4690291 28.64503161 80.08582915 33.1875 76.0625 C37.95308021 74.2621697 42.04691979 74.2621697 46.8125 76.0625 C49.67012342 78.59353788 50.91100517 81.41068386 52 85 C53.41896215 108.68376823 43.4279065 133.04162052 28.07788086 150.64453125 C9.90738439 170.80915595 -14.32727169 182.86661044 -41.4765625 184.28125 C-68.62015183 185.12618663 -93.63210935 175.8157485 -113.55859375 157.3671875 C-130.95965298 140.86211777 -142.46659385 117.33169048 -143.23828125 93.2265625 C-143.45609551 80.21191398 -143.01664067 68.41866279 -139 56 C-138.45666016 54.28490234 -138.45666016 54.28490234 -137.90234375 52.53515625 C-133.43213733 39.79127965 -125.87686476 29.06369833 -117 19 C-116.46117187 18.37738281 -115.92234375 17.75476563 -115.3671875 17.11328125 C-85.78340409 -14.7747667 -37.41465517 -18.06224732 0 0 Z " fill="#1EA8FF" transform="translate(312,546)"/>
<path d="M0 0 C7.72219997 -0.06924338 15.44434366 -0.11666427 23.16677856 -0.15002441 C26.22191449 -0.16335603 29.27692966 -0.18253292 32.33200073 -0.2064209 C35.9705192 -0.23391565 39.60878123 -0.24580373 43.24740028 -0.24620056 C45.23912968 -0.24989559 47.23081457 -0.26834913 49.22245789 -0.28723145 C55.57576329 -0.2717188 60.59735108 -0.21322573 66.13134766 3.078125 C68.31849156 7.45241281 67.35845387 13.33772635 67.37158203 18.19897461 C67.38126455 20.37197483 67.41227591 22.54401963 67.44384766 24.71679688 C67.45038034 26.10416106 67.45562977 27.491532 67.45947266 28.87890625 C67.46881836 30.13872314 67.47816406 31.39854004 67.48779297 32.6965332 C67.09793797 36.39508226 66.48797227 38.2177478 64.13134766 41.078125 C59.87600415 43.36479388 55.9051493 43.2654536 51.20556641 43.0546875 C50.45797562 43.02966156 49.71038483 43.00463562 48.94013977 42.97885132 C46.56588625 42.89705704 44.19251586 42.80031381 41.81884766 42.703125 C40.20364868 42.64484379 38.58841407 42.58754143 36.97314453 42.53125 C33.02537626 42.39153941 29.07833134 42.23842468 25.13134766 42.078125 C25.13356827 42.90351776 25.13578888 43.72891052 25.13807678 44.57931519 C25.19847552 68.21306711 25.19855934 91.84645644 25.14379883 115.48022461 C25.13523386 119.17960514 25.12828428 122.87898278 25.12280273 126.57836914 C25.10755221 136.16851626 25.07527811 145.75816577 24.99764919 155.348032 C24.96480337 159.42462028 24.94004199 163.50084777 24.93606567 167.57757568 C24.93187187 171.40329002 24.90412178 175.22810386 24.85797882 179.05353546 C24.84508412 180.45232185 24.84058378 181.85121512 24.8451767 183.25005341 C24.87547722 195.10507495 24.87547722 195.10507495 21.7746582 198.38427734 C13.53429778 203.66474475 -0.47830138 203.02560589 -10.00146484 201.8046875 C-13.10556417 201.11633075 -14.62713603 200.40535433 -16.52813721 197.82969666 C-17.97109297 194.86785305 -18.26627554 193.01130666 -18.31689453 189.74047852 C-18.33991638 188.69912247 -18.36293823 187.65776642 -18.38665771 186.58485413 C-18.39618469 185.47017258 -18.40571167 184.35549103 -18.41552734 183.20703125 C-18.44601166 181.47440285 -18.44601166 181.47440285 -18.47711182 179.70677185 C-18.51727874 177.26677553 -18.55045871 174.82665557 -18.57714844 172.38647461 C-18.61846384 168.65763782 -18.68111508 164.92963721 -18.74755859 161.20117188 C-18.78396858 158.82814391 -18.81916524 156.45509694 -18.85302734 154.08203125 C-18.87065125 152.96937393 -18.88827515 151.85671661 -18.90643311 150.71034241 C-18.92205292 149.14358009 -18.92205292 149.14358009 -18.93798828 147.54516602 C-18.94892517 146.6320314 -18.95986206 145.71889679 -18.97113037 144.77809143 C-18.86865234 142.078125 -18.86865234 142.078125 -18.37715149 139.3183136 C-17.71809374 135.11875611 -17.69182352 131.01276718 -17.66333008 126.76806641 C-17.65343048 125.85035461 -17.64353088 124.93264282 -17.6333313 123.98712158 C-17.60186276 120.96800271 -17.577017 117.94886813 -17.55224609 114.9296875 C-17.53166391 112.83075564 -17.51066711 110.7318278 -17.48927307 108.63290405 C-17.43418299 103.11907216 -17.38471626 97.60520367 -17.33642578 92.09130859 C-17.28611518 86.460579 -17.23047909 80.8299023 -17.17529297 75.19921875 C-17.06787125 64.15889939 -16.96639099 53.11853403 -16.86865234 42.078125 C-18.66266479 42.10169067 -18.66266479 42.10169067 -20.49291992 42.12573242 C-24.92644528 42.17999561 -29.35994123 42.2144619 -33.79370117 42.24291992 C-35.71334772 42.2580148 -37.63295975 42.27849273 -39.55249023 42.30444336 C-42.31030798 42.34079609 -45.06767014 42.35784412 -47.82568359 42.37109375 C-48.68515091 42.38657761 -49.54461823 42.40206146 -50.43013 42.41801453 C-51.23073349 42.41824112 -52.03133698 42.41846771 -52.85620117 42.41870117 C-53.56013504 42.42536301 -54.26406891 42.43202484 -54.98933411 42.43888855 C-57.46921227 41.96283844 -58.32332751 41.04107313 -59.86865234 39.078125 C-61.60495828 33.86920719 -61.09411527 28.28064648 -61.10888672 22.8269043 C-61.11860246 20.65179344 -61.14964291 18.477624 -61.18115234 16.30273438 C-61.18768201 14.91667226 -61.19293263 13.53060341 -61.19677734 12.14453125 C-61.20612305 10.88584229 -61.21546875 9.62715332 -61.22509766 8.33032227 C-60.86865234 5.078125 -60.86865234 5.078125 -59.88696289 2.67456055 C-56.67170922 0.13137151 -53.17856006 0.47459063 -49.24755859 0.46875 C-48.34822098 0.45203247 -47.44888336 0.43531494 -46.52229309 0.41809082 C-43.49182893 0.36782742 -40.46196244 0.34727351 -37.43115234 0.328125 C-35.29197915 0.30215966 -33.15281882 0.27511495 -31.01367188 0.24707031 C-24.98897957 0.17599892 -18.96439736 0.13687783 -12.93939209 0.10351562 C-8.6261723 0.07831677 -4.31311038 0.0393182 0 0 Z " fill="#000000" transform="translate(835.86865234375,524.921875)"/>
<path d="M0 0 C0.94907227 -0.00708481 1.89814453 -0.01416962 2.87597656 -0.02146912 C3.91037369 -0.0189917 4.94477081 -0.01651428 6.01051331 -0.01396179 C7.10521942 -0.01907272 8.19992554 -0.02418365 9.32780457 -0.02944946 C12.95069325 -0.04336287 16.57339208 -0.04238739 20.19630432 -0.04008484 C22.71209789 -0.04397071 25.2278908 -0.04830516 27.74368286 -0.05307007 C33.01867796 -0.06053598 38.29362382 -0.06037632 43.56861877 -0.05497742 C49.6614602 -0.04893724 55.75407072 -0.06125069 61.84687275 -0.08254749 C67.71377314 -0.1022988 73.58058313 -0.10533592 79.44751167 -0.10181236 C81.94140732 -0.10232625 84.4353066 -0.10757667 86.92918205 -0.11762428 C90.4148074 -0.12994397 93.8998967 -0.12322342 97.38551331 -0.11161804 C98.4178862 -0.11926178 99.45025909 -0.12690552 100.51391602 -0.13478088 C109.27943392 -0.07018944 109.27943392 -0.07018944 113.26271057 3.26069641 C116.75905224 8.14462188 115.59024327 14.91124455 115.57521057 20.63569641 C115.59132385 21.85514954 115.60743713 23.07460266 115.6240387 24.33100891 C115.62468323 25.51179016 115.62532776 26.69257141 115.62599182 27.90913391 C115.62897278 28.98340637 115.63195374 30.05767883 115.63502502 31.164505 C115.19685159 34.80838404 114.22295906 37.1647506 112.26271057 40.26069641 C108.58331672 42.94733568 104.55555764 42.42482267 100.21583557 42.23725891 C99.44463379 42.21223297 98.67343201 42.18720703 97.87886047 42.16142273 C95.42301487 42.07944922 92.96800095 41.98277385 90.51271057 41.88569641 C88.84477546 41.82743359 87.17680652 41.77013081 85.50880432 41.71382141 C81.42629734 41.57390451 77.34447361 41.42080278 73.26271057 41.26069641 C73.26455416 42.01883983 73.26639774 42.77698324 73.2682972 43.5581007 C73.31245987 62.0027391 73.34555918 80.44736695 73.36633492 98.89204693 C73.37664886 107.81174302 73.39071147 116.73140383 73.41358948 125.65107727 C73.43351971 133.42517728 73.44642615 141.19925173 73.45088756 148.97337657 C73.45349556 153.08996641 73.45962798 157.20648313 73.47417068 161.32304955 C73.48774879 165.19797505 73.49193275 169.07279734 73.48892593 172.94774437 C73.48947599 174.36953797 73.49345212 175.79133504 73.50112152 177.21310806 C73.51108573 179.15563711 73.50748477 181.09822157 73.5032196 183.04077148 C73.50506319 184.12756541 73.50690678 185.21435934 73.50880623 186.33408642 C73.25198254 189.38827589 72.64393279 191.53365882 71.26271057 194.26069641 C65.90315007 198.48309799 59.81290439 198.02597502 53.26271057 198.26069641 C52.18376526 198.30194641 51.10481995 198.34319641 49.99317932 198.38569641 C44.40630063 198.49813674 39.41264191 198.56172956 34.26271057 196.26069641 C30.45902106 191.74004604 30.86006141 187.17949299 30.93458557 181.57319641 C30.9368515 180.06359596 30.9368515 180.06359596 30.93916321 178.52349854 C30.94872104 175.10232491 30.980633 171.68172797 31.01271057 168.26069641 C31.02479494 165.82132949 31.03582908 163.38195718 31.0459137 160.94258118 C31.08651516 152.92651774 31.15904179 144.91090924 31.23716736 136.89513397 C31.26420336 134.10673501 31.29049579 131.3183297 31.31666565 128.52992249 C31.59064142 99.43970007 31.91179928 70.35008582 32.26271057 41.26069641 C30.51413757 41.28426208 30.51413757 41.28426208 28.73023987 41.30830383 C24.40853271 41.36257175 20.08685572 41.397035 15.76490784 41.42549133 C13.89376258 41.44058514 12.02265274 41.4610623 10.15162659 41.48701477 C7.46330531 41.52337234 4.77545144 41.54041656 2.08692932 41.55366516 C0.83053902 41.57689095 0.83053902 41.57689095 -0.45123291 41.60058594 C-6.30638238 41.60228561 -6.30638238 41.60228561 -8.41983032 39.9269104 C-12.12945739 35.235279 -10.92327531 28.51564155 -10.92259216 22.8639679 C-10.92477792 20.83388787 -10.9429454 18.80435218 -10.9618988 16.77436829 C-10.9638324 15.49239563 -10.96576599 14.21042297 -10.96775818 12.88960266 C-10.97186707 11.71470276 -10.97597595 10.53980286 -10.98020935 9.32929993 C-10.74200404 6.32025208 -10.49217012 4.69034451 -8.73728943 2.26069641 C-5.74300425 0.42724474 -3.48528524 0.00869234 0 0 Z " fill="#000000" transform="translate(609.7372894287109,292.7393035888672)"/>
<path d="M0 0 C1.02416016 -0.01224609 2.04832031 -0.02449219 3.10351562 -0.03710938 C13.50384258 -0.05730418 13.50384258 -0.05730418 17.5625 2.1875 C21.50534004 7.81625624 20.96120315 13.64911891 20.890625 20.23828125 C20.8891597 21.47585175 20.8876944 22.71342224 20.88618469 23.98849487 C20.87841354 27.43242 20.85674204 30.87573046 20.82860184 34.31951523 C20.80693692 37.25334355 20.79621881 40.18717093 20.78550434 43.12105656 C20.74828202 53.18642747 20.6699436 63.25134842 20.58605194 73.31642151 C20.56168319 76.28707236 20.53851722 79.25773051 20.51568604 82.22839355 C20.40809201 96.20665319 20.28828221 110.18476456 20.15544128 124.16280746 C20.13523118 126.29539644 20.11526049 128.42798769 20.09553528 130.56058121 C19.97121104 143.98213555 19.81962743 157.40275406 19.5999527 170.82311249 C19.56458474 173.05589072 19.53375256 175.28868523 19.50408936 177.52154541 C19.44994675 181.11553288 19.37021393 184.70761901 19.27734375 188.30078125 C19.26538467 189.28459274 19.2534256 190.26840424 19.24110413 191.2820282 C19.11276244 195.11289432 19.00043847 197.48959113 16.93920898 200.77441406 C13.75741382 202.6661686 11.51465771 202.68930947 7.8203125 202.68359375 C6.50675781 202.68423828 5.19320312 202.68488281 3.83984375 202.68554688 C3.15776855 202.67515381 2.47569336 202.66476074 1.77294922 202.65405273 C-0.29932337 202.62518357 -2.36902038 202.63343036 -4.44140625 202.64648438 C-18.0652492 202.5597508 -18.0652492 202.5597508 -22.4375 198.1875 C-22.53519871 196.79313699 -22.56381696 195.39385987 -22.56448364 193.99607849 C-22.56730756 193.08920194 -22.57013147 192.18232538 -22.57304096 191.24796772 C-22.57101264 190.24244452 -22.56898432 189.23692133 -22.56689453 188.20092773 C-22.56861003 187.14470057 -22.57032553 186.08847342 -22.57209301 185.00023937 C-22.57644584 181.45717581 -22.57345091 177.91415804 -22.5703125 174.37109375 C-22.57153844 171.87568137 -22.57310621 169.38026914 -22.57499695 166.88485718 C-22.57855984 159.49069229 -22.57301968 152.09655956 -22.56475878 144.70240068 C-22.5625089 142.63318299 -22.56053664 140.56396522 -22.55865097 138.49474716 C-22.54233463 120.84153608 -22.50678197 103.18842575 -22.45709229 85.53527832 C-22.44131033 79.86053879 -22.42997352 74.18580534 -22.42061996 68.51105213 C-22.40416535 58.85470642 -22.3630213 49.1990314 -22.28289795 39.54299927 C-22.25856991 36.52541952 -22.24558298 33.50812272 -22.24249268 30.490448 C-22.23761689 26.39540436 -22.19372688 22.30178162 -22.14453125 18.20703125 C-22.14845383 17.03884857 -22.1523764 15.87066589 -22.15641785 14.66708374 C-22.01439685 7.01179163 -22.01439685 7.01179163 -19.20581055 2.9987793 C-13.36323134 -0.82396478 -6.75986059 0.00423816 0 0 Z " fill="#000000" transform="translate(731.4375,524.8125)"/>
<path d="M0 0 C1.63388672 -0.00386719 1.63388672 -0.00386719 3.30078125 -0.0078125 C4.99267578 0.00378906 4.99267578 0.00378906 6.71875 0.015625 C7.84667969 0.00789063 8.97460938 0.00015625 10.13671875 -0.0078125 C11.22597656 -0.00523437 12.31523438 -0.00265625 13.4375 0 C14.9215332 0.00338379 14.9215332 0.00338379 16.43554688 0.00683594 C19.45714557 0.28779161 21.55264564 0.81295468 24.21875 2.265625 C26.74187521 5.85360865 26.49464778 9.6580466 26.46166992 13.87280273 C26.46353428 14.64269248 26.46539864 15.41258223 26.46731949 16.20580196 C26.47096811 18.78703838 26.46013639 21.3680058 26.44921875 23.94921875 C26.44852977 25.79822782 26.44863556 27.64723733 26.44947815 29.49624634 C26.4487353 34.51816608 26.43458928 39.53996241 26.41679382 44.56184769 C26.4062698 47.69722611 26.39863138 50.83259821 26.39196777 53.96798706 C26.36589184 66.01291096 26.32199171 78.05767406 26.26467323 90.10248852 C26.22753696 97.98400142 26.20003713 105.86550692 26.17626953 113.74707031 C26.14263442 124.54772025 26.0837572 135.34803415 26.00820923 146.14846802 C25.98000409 150.26572361 25.96062315 154.38287979 25.94857788 158.50021362 C25.93372772 163.3471445 25.89966614 168.19356217 25.85062981 173.04026413 C25.83579599 174.81863439 25.82769829 176.59707545 25.82681465 178.37550735 C25.82447106 180.80177145 25.79767699 183.22657542 25.76464844 185.65258789 C25.76967975 186.35676063 25.77471106 187.06093336 25.77989483 187.78644466 C25.70536266 191.28618621 25.25191915 193.21285464 23.37245178 196.20298767 C20.45450453 198.99755606 18.72588254 198.88401903 14.73046875 198.859375 C13.46654297 198.85679687 12.20261719 198.85421875 10.90039062 198.8515625 C8.92329102 198.80902344 8.92329102 198.80902344 6.90625 198.765625 C5.59978516 198.76820313 4.29332031 198.77078125 2.94726562 198.7734375 C-9.16504157 198.65028237 -9.16504157 198.65028237 -14.78125 195.265625 C-15.94010429 192.94791643 -15.90697256 191.6256996 -15.90823364 189.04614258 C-15.91105347 188.16067749 -15.91387329 187.2752124 -15.91677856 186.36291504 C-15.91475433 185.38850464 -15.9127301 184.41409424 -15.91064453 183.41015625 C-15.91327301 181.87300964 -15.91327301 181.87300964 -15.91595459 180.30480957 C-15.92037621 176.89589776 -15.91743057 173.4870374 -15.9140625 170.078125 C-15.91473628 167.702718 -15.91570692 165.32731106 -15.91696167 162.9519043 C-15.91843973 157.95490874 -15.91628368 152.95793099 -15.91162109 147.9609375 C-15.90597317 141.60218352 -15.90917043 135.2434722 -15.91519356 128.88471985 C-15.91883876 123.9668751 -15.91764172 119.04904014 -15.91506577 114.13119507 C-15.9144048 111.79039505 -15.91519542 109.4495941 -15.91754532 107.10879517 C-15.92635166 95.8523941 -15.85119664 84.64941972 -15.12971401 73.41405964 C-14.69332748 66.45640981 -14.72168985 59.52819781 -14.82421875 52.55859375 C-14.84087355 50.58104251 -14.85750469 48.60349073 -14.87272358 46.62592793 C-14.91033902 41.84667958 -14.95825721 37.06770929 -15.02807617 32.28881836 C-15.06722355 29.56950403 -15.09572487 26.8504807 -15.11238098 24.13093567 C-15.12827905 21.59325555 -15.15973398 19.05561213 -15.20878601 16.51835632 C-15.21231583 15.37558731 -15.21584564 14.2328183 -15.21948242 13.05541992 C-15.23138107 12.05492111 -15.24327972 11.0544223 -15.25553894 10.02360535 C-14.64760087 6.48845811 -13.23522887 4.83204915 -10.78125 2.265625 C-7.15829267 0.300104 -4.08462886 0.00931349 0 0 Z " fill="#000000" transform="translate(549.78125,292.734375)"/>
<path d="M0 0 C7.65789382 6.2510459 13.28036659 14.8273049 15.0625 24.68359375 C15.918195 38.67091587 13.96904899 49.48344098 5.0625 60.68359375 C-3.38987464 69.15015022 -13.47888377 73.68398701 -25.4375 73.99609375 C-35.94455999 73.87963619 -45.17539235 70.79457537 -52.9375 63.68359375 C-53.55238281 63.15894531 -54.16726562 62.63429688 -54.80078125 62.09375 C-62.33487724 55.23723866 -66.25052688 46.00778408 -67.19140625 35.9765625 C-67.68610522 23.80058452 -64.0840175 12.81026424 -55.9375 3.68359375 C-40.1553179 -11.31957753 -17.67394217 -12.65580502 0 0 Z M-40.875 21.80859375 C-43.61226089 26.15655577 -44.33610131 30.59744102 -43.9375 35.68359375 C-41.98613402 42.59769295 -37.67783535 46.39783326 -31.6875 50.05859375 C-26.66476846 51.20012365 -21.61869224 50.86169337 -16.875 48.77734375 C-12.20733744 45.79969694 -9.58534489 41.9391464 -7.9375 36.68359375 C-6.9275924 31.3217132 -8.10829797 27.15724881 -10.734375 22.44140625 C-13.51716001 18.37564893 -17.24679908 15.99262656 -21.9375 14.68359375 C-29.61972937 13.92796463 -35.82911547 15.67523411 -40.875 21.80859375 Z " fill="#1EA8FF" transform="translate(291.9375,597.31640625)"/>
</svg>
